REM DIRINDEX 1\2,1\3,1\4,1\5
REM DIRNAME "folder01","folder02","folder03","folder04","folder05"
TITLE ""
FILE "1Q_t_1278-1287.mp3" MP3
  TRACK 01 AUDIO
    TITLE "3:cjc172_4805"
    INDEX 01 00:00:00
  TRACK 02 AUDIO
    TITLE "0:"
    INDEX 01 00:01:10
  TRACK 03 AUDIO
    TITLE "4:cjc172_4806"
    INDEX 01 00:01:18
  TRACK 04 AUDIO
    TITLE "0:"
    INDEX 01 00:03:30
  TRACK 05 AUDIO
    TITLE "5:cjc172_4807"
    INDEX 01 00:03:36
  TRACK 06 AUDIO
    TITLE "0:"
    INDEX 01 00:11:16
  TRACK 07 AUDIO
    TITLE "3:cjc172_4808"
    INDEX 01 00:11:63
  TRACK 08 AUDIO
    TITLE "0:"
    INDEX 01 00:12:68
  TRACK 09 AUDIO
    TITLE "4:cjc172_4809"
    INDEX 01 00:13:03
  TRACK 10 AUDIO
    TITLE "0:"
    INDEX 01 00:16:15
  TRACK 11 AUDIO
    TITLE "5:cjc172_4810"
    INDEX 01 00:16:21
  TRACK 12 AUDIO
    TITLE "0:"
    INDEX 01 00:22:45
  TRACK 13 AUDIO
    TITLE "3:cjc172_4811"
    INDEX 01 00:23:15
  TRACK 14 AUDIO
    TITLE "0:"
    INDEX 01 00:24:21
  TRACK 15 AUDIO
    TITLE "4:cjc172_4812"
    INDEX 01 00:24:28
  TRACK 16 AUDIO
    TITLE "0:"
    INDEX 01 00:28:16
  TRACK 17 AUDIO
    TITLE "5:cjc172_4813"
    INDEX 01 00:28:24
  TRACK 18 AUDIO
    TITLE "0:"
    INDEX 01 00:33:35
  TRACK 19 AUDIO
    TITLE "3:cjc172_4814"
    INDEX 01 00:34:03
  TRACK 20 AUDIO
    TITLE "0:"
    INDEX 01 00:35:05
  TRACK 21 AUDIO
    TITLE "4:cjc172_4815"
    INDEX 01 00:35:13
  TRACK 22 AUDIO
    TITLE "0:"
    INDEX 01 00:37:68
  TRACK 23 AUDIO
    TITLE "5:cjc172_4816"
    INDEX 01 00:37:74
  TRACK 24 AUDIO
    TITLE "0:"
    INDEX 01 00:43:41
  TRACK 25 AUDIO
    TITLE "3:cjc172_4817"
    INDEX 01 00:44:13
  TRACK 26 AUDIO
    TITLE "0:"
    INDEX 01 00:45:31
  TRACK 27 AUDIO
    TITLE "4:cjc172_4818"
    INDEX 01 00:45:38
  TRACK 28 AUDIO
    TITLE "0:"
    INDEX 01 00:47:47
  TRACK 29 AUDIO
    TITLE "5:cjc172_4819"
    INDEX 01 00:47:53
  TRACK 30 AUDIO
    TITLE "0:"
    INDEX 01 00:54:16
  TRACK 31 AUDIO
    TITLE "3:cjc172_4820"
    INDEX 01 00:54:59
  TRACK 32 AUDIO
    TITLE "0:"
    INDEX 01 00:55:74
  TRACK 33 AUDIO
    TITLE "4:cjc172_4821"
    INDEX 01 00:56:15
  TRACK 34 AUDIO
    TITLE "0:"
    INDEX 01 00:58:31
  TRACK 35 AUDIO
    TITLE "5:cjc172_4822"
    INDEX 01 00:58:37
  TRACK 36 AUDIO
    TITLE "0:"
    INDEX 01 01:05:12
  TRACK 37 AUDIO
    TITLE "3:cjc172_4823"
    INDEX 01 01:05:57
  TRACK 38 AUDIO
    TITLE "0:"
    INDEX 01 01:06:60
  TRACK 39 AUDIO
    TITLE "4:cjc172_4824"
    INDEX 01 01:06:70
  TRACK 40 AUDIO
    TITLE "0:"
    INDEX 01 01:09:23
  TRACK 41 AUDIO
    TITLE "5:cjc172_4825"
    INDEX 01 01:09:29
  TRACK 42 AUDIO
    TITLE "0:"
    INDEX 01 01:17:01
  TRACK 43 AUDIO
    TITLE "3:cjc172_4826"
    INDEX 01 01:17:46
  TRACK 44 AUDIO
    TITLE "0:"
    INDEX 01 01:18:71
  TRACK 45 AUDIO
    TITLE "4:cjc172_4827"
    INDEX 01 01:19:04
  TRACK 46 AUDIO
    TITLE "0:"
    INDEX 01 01:21:36
  TRACK 47 AUDIO
    TITLE "5:cjc172_4828"
    INDEX 01 01:21:42
  TRACK 48 AUDIO
    TITLE "0:"
    INDEX 01 01:28:44
  TRACK 49 AUDIO
    TITLE "3:cjc172_4829"
    INDEX 01 01:29:16
  TRACK 50 AUDIO
    TITLE "0:"
    INDEX 01 01:30:37
  TRACK 51 AUDIO
    TITLE "4:cjc172_4830"
    INDEX 01 01:30:47
  TRACK 52 AUDIO
    TITLE "0:"
    INDEX 01 01:32:07
  TRACK 53 AUDIO
    TITLE "5:cjc172_4831"
    INDEX 01 01:32:14
  TRACK 54 AUDIO
    TITLE "0:"
    INDEX 01 01:38:39
  TRACK 55 AUDIO
    TITLE "3:cjc172_4832"
    INDEX 01 01:39:07
  TRACK 56 AUDIO
    TITLE "0:"
    INDEX 01 01:40:20
  TRACK 57 AUDIO
    TITLE "4:cjc172_4833"
    INDEX 01 01:40:28
  TRACK 58 AUDIO
    TITLE "0:"
    INDEX 01 01:43:44
  TRACK 59 AUDIO
    TITLE "5:cjc172_4834"
    INDEX 01 01:43:52
  TRACK 60 AUDIO
    TITLE "0:"
    INDEX 01 01:49:48
